<svg width="48" xmlns="http://www.w3.org/2000/svg" height="48" id="screenshot-0adb9f7f-9d99-80eb-8008-bd3d1f664484" viewBox="0 0 48 48" xmlns:xlink="http://www.w3.org/1999/xlink" fill="none" version="1.1"><style>/* cyrillic-ext */
@font-face {
  font-family: 'Unbounded';
  font-style: normal;
  font-weight: 900;
  font-display: block;
  src: url(https://design.penpot.app/internal/gfonts/font/unbounded/v12/Yq6F-LOTXCb04q32xlpat-6uR42XTqtG67H244fNgc6L.woff2) format('woff2');
  unicode-range: U+0460-052F, U+1C80-1C8A, U+20B4, U+2DE0-2DFF, U+A640-A69F, U+FE2E-FE2F;
}
/* cyrillic */
@font-face {
  font-family: 'Unbounded';
  font-style: normal;
  font-weight: 900;
  font-display: block;
  src: url(https://design.penpot.app/internal/gfonts/font/unbounded/v12/Yq6F-LOTXCb04q32xlpat-6uR42XTqtG67H2447Ngc6L.woff2) format('woff2');
  unicode-range: U+0301, U+0400-045F, U+0490-0491, U+04B0-04B1, U+2116;
}
/* vietnamese */
@font-face {
  font-family: 'Unbounded';
  font-style: normal;
  font-weight: 900;
  font-display: block;
  src: url(https://design.penpot.app/internal/gfonts/font/unbounded/v12/Yq6F-LOTXCb04q32xlpat-6uR42XTqtG67H244XNgc6L.woff2) format('woff2');
  unicode-range: U+0102-0103, U+0110-0111, U+0128-0129, U+0168-0169, U+01A0-01A1, U+01AF-01B0, U+0300-0301, U+0303-0304, U+0308-0309, U+0323, U+0329, U+1EA0-1EF9, U+20AB;
}
/* latin-ext */
@font-face {
  font-family: 'Unbounded';
  font-style: normal;
  font-weight: 900;
  font-display: block;
  src: url(https://design.penpot.app/internal/gfonts/font/unbounded/v12/Yq6F-LOTXCb04q32xlpat-6uR42XTqtG67H244TNgc6L.woff2) format('woff2');
  unicode-range: U+0100-02BA, U+02BD-02C5, U+02C7-02CC, U+02CE-02D7, U+02DD-02FF, U+0304, U+0308, U+0329, U+1D00-1DBF, U+1E00-1E9F, U+1EF2-1EFF, U+2020, U+20A0-20AB, U+20AD-20C0, U+2113, U+2C60-2C7F, U+A720-A7FF;
}
/* latin */
@font-face {
  font-family: 'Unbounded';
  font-style: normal;
  font-weight: 900;
  font-display: block;
  src: url(https://design.penpot.app/internal/gfonts/font/unbounded/v12/Yq6F-LOTXCb04q32xlpat-6uR42XTqtG67H244rNgQ.woff2) format('woff2');
  unicode-range: U+0000-00FF, U+0131, U+0152-0153, U+02BB-02BC, U+02C6, U+02DA, U+02DC, U+0304, U+0308, U+0329, U+2000-206F, U+20AC, U+2122, U+2191, U+2193, U+2212, U+2215, U+FEFF, U+FFFD;
}
</style><g id="shape-0adb9f7f-9d99-80eb-8008-bd3d1f664484"><defs><clipPath id="frame-clip-0adb9f7f-9d99-80eb-8008-bd3d1f664484-render-15" class="frame-clip frame-clip-def"><rect rx="0" ry="0" x="0" y="0" width="48" height="48" transform="matrix(1.000000, 0.000000, 0.000000, 1.000000, 0.000000, 0.000000)"/></clipPath></defs><g class="frame-container-wrapper"><g class="frame-container-blur"><g class="frame-container-shadows"><g clip-path="url(#frame-clip-0adb9f7f-9d99-80eb-8008-bd3d1f664484-render-15)" fill="none"><g class="fills" id="fills-0adb9f7f-9d99-80eb-8008-bd3d1f664484"><rect width="48" height="48" class="frame-background" x="0" transform="matrix(1.000000, 0.000000, 0.000000, 1.000000, 0.000000, 0.000000)" style="fill: rgb(242, 238, 252); fill-opacity: 1;" ry="0" rx="0" y="0"/></g><g class="frame-children"><g id="shape-0adb9f7f-9d99-80eb-8008-bd42d368b4be" rx="0" ry="0"><g id="shape-0adb9f7f-9d99-80eb-8008-bd42d368b4bf" style="display: none;"><g class="fills" id="fills-0adb9f7f-9d99-80eb-8008-bd42d368b4bf"><rect rx="4" ry="4" x="18" y="-4" transform="matrix(1.000000, 0.000000, 0.000000, 1.000000, 0.000000, 0.000000)" width="34" height="33.99999999999977" style="fill: rgb(176, 47, 44); fill-opacity: 1;"/></g></g><g id="shape-0adb9f7f-9d99-80eb-8008-bd42d368b4c0" style="display: none;"><g class="fills" id="fills-0adb9f7f-9d99-80eb-8008-bd42d368b4c0"><path d="M25.47998046875,26.60009765625C24.7320556640625,26.60009765625,24.0916748046875,26.333740234375,23.55908203125,25.801025390625C23.0263671875,25.268310546875,22.760009765625,24.6280517578125,22.760009765625,23.8800048828125L22.760009765625,8.5458984375C22.35198974609375,8.296630859375,22.02337646484375,7.9736328125,21.77392578125,7.576904296875C21.524658203125,7.1802978515625,21.4000244140625,6.7213134765625,21.4000244140625,6.199951171875L21.4000244140625,2.1201171875C21.4000244140625,1.3720703125,21.666259765625,0.7318115234375,22.198974609375,0.198974609375C22.73162841796875,-0.333740234375,23.3719482421875,-0.5999755859375,24.12005615234375,-0.5999755859375L45.87994384765625,-0.5999755859375C46.62799072265625,-0.5999755859375,47.268310546875,-0.333740234375,47.801025390625,0.198974609375C48.33367919921875,0.7318115234375,48.5999755859375,1.3720703125,48.5999755859375,2.1201171875L48.5999755859375,6.199951171875C48.5999755859375,6.7213134765625,48.475341796875,7.1802978515625,48.22607421875,7.576904296875C47.9766845703125,7.9736328125,47.64801025390625,8.296630859375,47.239990234375,8.5458984375L47.239990234375,23.8800048828125C47.239990234375,24.6280517578125,46.9736328125,25.268310546875,46.44097900390625,25.801025390625C45.9083251953125,26.333740234375,45.2679443359375,26.60009765625,44.52008056640625,26.60009765625L25.47998046875,26.60009765625ZM25.47998046875,8.9200439453125L25.47998046875,23.8800048828125L44.52008056640625,23.8800048828125L44.52008056640625,8.9200439453125L25.47998046875,8.9200439453125ZM24.12005615234375,6.199951171875L45.87994384765625,6.199951171875L45.87994384765625,2.1201171875L24.12005615234375,2.1201171875L24.12005615234375,6.199951171875ZM30.91998291015625,15.719970703125L39.0799560546875,15.719970703125L39.0799560546875,13L30.91998291015625,13L30.91998291015625,15.719970703125ZM35,16.39990234375Z" style="fill: rgb(148, 79, 30); fill-opacity: 1;"/></g></g><g id="shape-0adb9f7f-9d99-80eb-8008-bd42d368b4bd"><g transform="matrix(1.000000, 0.000000, 0.000000, 1.000000, 0.000000, 0.000000)" class="text-container" x="19.999999999999886" y="-3.0000000000002274" width="30" height="30" rx="0" ry="0"><defs><pattern patternUnits="objectBoundingBox" width="29.883331298828125" height="37.333343505859375" id="fill-0-render-19-0"><g><rect width="29.883331298828125" height="37.333343505859375" style="fill: rgb(51, 25, 123); fill-opacity: 1;"/></g></pattern></defs><g class="fills" id="fills-0adb9f7f-9d99-80eb-8008-bd42d368b4bd"><text x="19.999999999999886" y="30.66667175292946" dominant-baseline="ideographic" textLength="29.883331298828125" lengthAdjust="spacingAndGlyphs" style="text-transform: none; font-family: Unbounded; letter-spacing: normal; font-style: normal; font-weight: 900; white-space: pre; font-size: 30px; text-decoration: none; direction: ltr; fill: rgb(51, 25, 123); fill-opacity: 1;">A</text></g></g></g><g id="shape-0adb9f7f-9d99-80eb-8008-bd42d368b4c1"><defs><linearGradient id="fill-color-gradient-render-20-0" x1="-0.0004891757314756735" y1="0.9972639108311228" x2="0.9957727676390467" y2="0.00573483957631041" gradientTransform=""><stop offset="0" stop-color="#070311" stop-opacity="1"/><stop offset="0.59" stop-color="#3e325f" stop-opacity="1"/><stop offset="1" stop-color="#9e84e6" stop-opacity="1"/></linearGradient><pattern patternUnits="userSpaceOnUse" x="1" y="13" width="33.999999999999886" height="34.00000000000023" id="fill-0-render-20"><g><rect width="33.999999999999886" height="34.00000000000023" style="fill: url(&quot;#fill-color-gradient-render-20-0&quot;);"/></g></pattern></defs><g class="fills" id="fills-0adb9f7f-9d99-80eb-8008-bd42d368b4c1"><rect rx="4" ry="4" x="1" y="13" transform="matrix(1.000000, 0.000000, 0.000000, 1.000000, 0.000000, 0.000000)" width="33.999999999999886" height="34.00000000000023" fill="url(#fill-0-render-20)"/></g></g><g id="shape-0adb9f7f-9d99-80eb-8008-bd42d368b4c2"><g class="fills" id="fills-0adb9f7f-9d99-80eb-8008-bd42d368b4c2"><path d="M18,46.6221923828125C16.1866455078125,44.9095458984375,14.10888671875,43.5999755859375,11.7667236328125,42.6932373046875C9.4244384765625,41.7867431640625,6.9688720703125,41.3333740234375,4.4000244140625,41.3333740234375L4.4000244140625,24.7110595703125C6.9437255859375,24.7110595703125,9.38671875,25.1707763671875,11.7288818359375,26.090087890625C14.071044921875,27.0091552734375,16.1614990234375,28.3377685546875,18,30.0755615234375C19.83843994140625,28.3377685546875,21.9288330078125,27.0091552734375,24.27105712890625,26.090087890625C26.61328125,25.1707763671875,29.0562744140625,24.7110595703125,31.5999755859375,24.7110595703125L31.5999755859375,41.3333740234375C29.0059814453125,41.3333740234375,26.54400634765625,41.7867431640625,24.21441650390625,42.6932373046875C21.88482666015625,43.5999755859375,19.81329345703125,44.9095458984375,18,46.6221923828125ZM18,42.6932373046875C19.58673095703125,41.5096435546875,21.2740478515625,40.565185546875,23.062255859375,39.85986328125C24.85040283203125,39.15478515625,26.68890380859375,38.6888427734375,28.5777587890625,38.4622802734375L28.5777587890625,28.0355224609375C26.7392578125,28.3629150390625,24.9322509765625,29.0240478515625,23.1566162109375,30.0189208984375C21.381103515625,31.013671875,19.6622314453125,32.3421630859375,18,34.00439453125C16.3377685546875,32.3421630859375,14.618896484375,31.013671875,12.8433837890625,30.0189208984375C11.0677490234375,29.0240478515625,9.26068115234375,28.3629150390625,7.422119140625,28.0355224609375L7.422119140625,38.4622802734375C9.3111572265625,38.6888427734375,11.149658203125,39.15478515625,12.93780517578125,39.85986328125C14.725830078125,40.565185546875,16.413330078125,41.5096435546875,18,42.6932373046875ZM13.7310791015625,24.4466552734375C12.54736328125,23.262939453125,11.9554443359375,21.840087890625,11.9554443359375,20.1778564453125C11.9554443359375,18.515625,12.54736328125,17.0926513671875,13.7310791015625,15.9088134765625C14.91485595703125,14.7252197265625,16.3377685546875,14.13330078125,18,14.13330078125C19.6622314453125,14.13330078125,21.085205078125,14.7252197265625,22.2689208984375,15.9088134765625C23.45257568359375,17.0926513671875,24.04443359375,18.515625,24.04443359375,20.1778564453125C24.04443359375,21.840087890625,23.45257568359375,23.262939453125,22.2689208984375,24.4466552734375C21.085205078125,25.63037109375,19.6622314453125,26.22216796875,18,26.22216796875C16.3377685546875,26.22216796875,14.91485595703125,25.63037109375,13.7310791015625,24.4466552734375ZM20.13446044921875,22.312255859375C20.726318359375,21.7203369140625,21.02227783203125,21.0087890625,21.02227783203125,20.1778564453125C21.02227783203125,19.3465576171875,20.726318359375,18.6351318359375,20.13446044921875,18.043212890625C19.5426025390625,17.451416015625,18.83111572265625,17.155517578125,18,17.155517578125C17.16888427734375,17.155517578125,16.45745849609375,17.451416015625,15.8656005859375,18.043212890625C15.273681640625,18.6351318359375,14.977783203125,19.3465576171875,14.977783203125,20.1778564453125C14.977783203125,21.0087890625,15.273681640625,21.7203369140625,15.8656005859375,22.312255859375C16.45745849609375,22.904052734375,17.16888427734375,23.2000732421875,18,23.2000732421875C18.83111572265625,23.2000732421875,19.5426025390625,22.904052734375,20.13446044921875,22.312255859375ZM18,20.1778564453125ZM18,34.00439453125Z" style="fill: rgb(206, 216, 65); fill-opacity: 1;"/></g></g></g></g></g></g></g></g></g></svg>